<?xml version="1.0" standalone="no"?>
<!DOCTYPE svg PUBLIC "-//W3C//DTD SVG 20010904//EN"
 "http://www.w3.org/TR/2001/REC-SVG-20010904/DTD/svg10.dtd">
<svg version="1.0" xmlns="http://www.w3.org/2000/svg"
 width="64.000000pt" height="64.000000pt" viewBox="0 0 64.000000 64.000000"
 preserveAspectRatio="xMidYMid meet">

<g transform="translate(0.000000,64.000000) scale(0.100000,-0.100000)"
fill="#000000" stroke="none">
<path d="M243 587 c-47 -18 -48 -23 -19 -67 25 -37 27 -39 54 -28 15 7 28 13
30 14 2 1 0 23 -3 48 -8 49 -12 51 -62 33z"/>
<path d="M335 554 c-3 -25 -5 -47 -3 -48 2 -1 15 -7 30 -14 25 -10 29 -8 58
27 16 22 30 41 30 44 0 5 -87 37 -101 37 -4 0 -10 -21 -14 -46z"/>
<path d="M131 514 c-28 -36 -27 -40 17 -68 l37 -24 22 27 22 26 -32 33 c-17
17 -34 32 -38 32 -4 0 -17 -12 -28 -26z"/>
<path d="M452 507 c-33 -34 -34 -35 -17 -61 10 -14 19 -26 22 -26 8 0 83 45
83 50 0 3 -12 21 -27 39 l-28 32 -33 -34z"/>
<path d="M278 473 c-14 -4 -18 -15 -18 -59 0 -67 -18 -72 -22 -6 l-3 47 -22
-35 c-21 -33 -23 -46 -23 -197 l0 -163 25 0 c23 0 25 3 25 50 0 28 5 50 10 50
6 0 10 -22 10 -50 0 -47 2 -50 25 -50 23 0 25 3 25 50 0 28 5 50 10 50 6 0 10
-22 10 -50 0 -47 2 -50 25 -50 23 0 25 3 25 50 0 28 5 50 10 50 6 0 10 -22 10
-50 0 -47 2 -50 26 -50 l25 0 -3 168 c-3 148 -5 171 -23 197 l-20 30 -3 -47
c-4 -66 -22 -60 -22 7 0 30 -4 55 -9 55 -5 0 -16 3 -25 6 -14 5 -16 -3 -16
-55 0 -34 -4 -61 -10 -61 -6 0 -10 27 -10 60 0 33 -3 59 -7 59 -5 -1 -16 -3
-25 -6z m-18 -213 c0 -27 -4 -50 -10 -50 -5 0 -10 23 -10 50 0 28 5 50 10 50
6 0 10 -22 10 -50z m70 0 c0 -27 -4 -50 -10 -50 -5 0 -10 23 -10 50 0 28 5 50
10 50 6 0 10 -22 10 -50z m70 0 c0 -27 -4 -50 -10 -50 -5 0 -10 23 -10 50 0
28 5 50 10 50 6 0 10 -22 10 -50z"/>
<path d="M80 415 c-5 -14 -10 -37 -10 -51 0 -22 4 -24 50 -24 43 0 50 3 50 19
0 11 3 26 6 34 3 10 -4 18 -23 25 -15 5 -36 13 -45 17 -13 5 -20 0 -28 -20z"/>
<path d="M503 414 c-27 -11 -33 -20 -33 -44 0 -29 1 -30 50 -30 45 0 50 2 50
23 0 36 -11 67 -24 66 -6 0 -26 -7 -43 -15z"/>
<path d="M98 313 c-28 -4 -28 -4 -28 -87 l0 -83 38 -7 c65 -10 62 -14 62 89 0
105 5 100 -72 88z"/>
<path d="M470 220 c0 -109 -3 -104 63 -94 l37 7 0 87 0 87 -37 7 c-66 10 -63
15 -63 -94z"/>
<path d="M70 70 l0 -40 50 0 50 0 0 40 0 40 -50 0 -50 0 0 -40z"/>
<path d="M470 65 l0 -35 50 0 50 0 0 35 0 35 -50 0 -50 0 0 -35z"/>
</g>
</svg>
